<svg version="1.2" xmlns="http://www.w3.org/2000/svg" viewBox="0 0 1418 1418" width="1418" height="1418">
	<title>images-ai</title>
	<style>
		.s0 { fill: #000000 } 
		.s1 { opacity: 1;fill: #000000;stroke: #ff0000;stroke-width: 14 } 
		.s2 { fill: none;stroke: #ff0000;stroke-width: 10 } 
		.s3 { fill: #000000;stroke: #ff0000;stroke-width: 10 } 
		.s4 { fill: #ff0000 } 
	</style>
	<g id="Layer 1">
		<g id="&lt;Group&gt;">
			<path id="&lt;Path&gt;" class="s0" d=""/>
			<g id="&lt;Group&gt;">
				<path id="&lt;Path&gt;" class="s1" d="m208.4 363.3c-17.7-39.1-19.3-81.2-10.1-85 9.9-4.1 28.4 39 82.1 87.9 34.6 31.5 71.5 54.1 74.8 50.4 3-3.5-22.9-26.5-58.5-75.8-26.2-36.3-39.4-54.9-43.7-79.8-7.2-41.6 9.5-86.3 23.2-86.8 10.9-0.4 14 27.1 40.2 78.2 24.3 47.5 59 96.6 69.1 92.2 2.9-1.3 2.2-6.3 1.4-37.5-0.9-33.5-1.3-50.5 0-63.3 2.5-24.6 11-59.1 20.2-59.1 4.9 0 7.9 10 20.1 47.5 14.3 43.8 21.5 65.9 26 76.4 2.8 6.6 13.4 26.5 34.5 66.2 14.1 26.4 20.6 40.2 25.9 47.5 30.7 41.6 22.7 35 41.8 59.1 21.5 27 40.4 46.2 49 54.7 13.1 13 26 24 51.8 46.1 13.1 11.2 21.6 18.1 33.1 25.9 14.4 9.7 25.5 15.4 31.7 18.7 23.4 12.5 59.4 31.7 83.2 60.6 27.3 33.1 27.9 65.9 33.4 64.7 5.4-1.2 8.1-32.7-6-56.1-3.4-5.6-7.6-10.6-15.8-20.1-8.9-10.4-16.9-18.5-22.5-23.9 0-0.1-0.1-0.3-0.1-0.4-4.9-28.5-6.3-50.9-6.3-50.9 0 0 1.1 11.8 0.9 11.8-0.2 0-2.1-12.8-3.4-27.5-0.5-5.5-1.4-10-1.5-24.4 0-17.9-1.1-16.2-1.4-34.6-0.4-27.1-0.6-41.7 4.3-43.2 6.8-2.1 18.1 26.6 25.9 24.5 4.5-1.2 5.5-11.6 5.8-20.2 8.5-41 9.6-64 8.6-77.7-0.1-1.9-1.1-15.1 4.3-30.3 2.5-6.8 5.7-15.6 10.1-15.8 11.7-0.7 20.9 57.1 28.8 56.1 1.3-0.1 3.4-1.9 5.8-21.6 4.4-36.5-1.3-44.8 4.3-66.2 3.3-12.6 8.3-21.3 15.8-34.6 7-12.2 17.5-30.5 23.1-28.8 3.1 1 3.5 7.8 2.9 46.1-0.6 32.8-1.2 43.5 4.3 57.6 4.3 11.1 12.7 25.5 17.8 24.2 4-0.9 7.1-11.5 3.8-53-1.4-13.7-1.8-34.7 4.3-59 5.1-20.3 12.7-34.6 15.8-40.3 19.7-35.2 53.8-64.6 62-59.1 5.2 3.6-0.5 21.4-5 35.1-6.3 19.5-11.7 22.6-18.3 43.2-3.7 11.6-5.2 20.5-7 31.2-2.7 16-4.9 29.4-2.9 46 1.1 9.1 4.8 30.1 10.1 30.3 6.1 0.1 12.1-26.8 14.4-43.2 2.9-20.6-0.5-22.5 2.9-37.5 1.6-7.2 3.3-10.6 20.2-43.2 12.1-23.4 18.5-35.2 23-41.7 9.5-14.1 18.4-24 29-35.9 9.7-10.9 14.6-16.4 20-20.3 13.5-9.8 37.8-20.5 44.3-13.7 10.2 10.9-29.4 50.2-64 136-11.9 29.4-23.9 66.3-20 68 3.7 1.8 21.5-29 28.1-40.5 15.5-26.8 14.7-30.5 26-50.4 21.5-38 45.9-62.2 54.7-70.6 5.1-4.9 18.4-17.1 37.4-30.2 3.6-2.5 13.2-9 29.8-18.3 36.2-20.1 57.4-32 61.2-27.6 9.1 10.4-85.2 114-109.7 140.9-12.9 14.1-35.8 38.9-33.1 41.8 2.1 2.3 18.4-12.6 43.2-24.5 35.6-17.1 81.5-24.6 86.4-14.6 5.4 11.1-44.1 34.5-106 94-48.8 47-96.2 92.6-126 164-9.6 22.9-22 59.6-50 120-15.6 33.7-24.9 50.6-44 62-37.2 22.3-83.9 10.1-84 12-0.1 2.1 26.9 10.2 62.9 9 32.5-1.1 42.9-8.8 74.3-5 22.7 2.7 33 8.6 38.9 12.9 3.9 2.9 16.3 11.8 22.7 28.2 10.1 25.6 1.1 56.7-8.3 58.1-6.6 1-8.8-13.4-22.1-16.7-8.6-2.1-15.8 3.3-30.5 9.9-19.6 8.8-31.1 19.2-43.3 29.2-33.3 27.6-32.7 20.9-59 43.2-25.5 21.7-40.8 40.5-60.5 64.8-27.1 33.4-46.9 58.2-40 68.3 6.6 9.7 30.4-5.7 50.4 8.1 15 10.3 22.8 33.4 15.4 44.1-6.8 9.9-25.6 8.2-52.8 5.8-33.1-3-46.9-10.5-55.7-1.9-6 5.8-7.4 16.9-3.8 24 4.1 8.1 12 5.9 24 15.3 3.1 2.5 15.7 12.4 18.2 28.8 0.5 2.9 2.7 17.2-6.7 27.9-5.1 5.8-11.4 7.9-13.4 8.6-3 1-12.2 4-19.1 0-9-5.1-4.4-16.4-11.7-23-12.8-11.8-43.1 8.6-49.9 0-5.2-6.7 11.7-20.1 6.7-34.6-4.5-13.3-21.5-9.9-31.6-25.9-4.5-7-4.6-17.5-4.8-38.4-0.2-13.1-0.4-27.6 2.8-47.1 4.2-25.3 10.8-38.9 6.8-41.2-3.3-2-10.7 5.1-15.4 9.6-17.1 16-36.9 28.8-54.7 44.1-24.1 20.7-57.9 32.4-84.5 33.6-62.8 2.9-120.5-49.8-115.2-65.3 1.6-4.8 10.8-6.9 29-11.2 19.9-4.7 24.8-2.8 37.2-7 21.5-7.2 36.1-23.4 34.6-25.9-1.6-2.7-19.4 11.7-49 13.4-7.9 0.5-12.6-0.2-26.8 1-11.8 0.9-14.8 1.9-23.1 1.9-14.3 0-21.5 0.1-26.9-4.8-6.5-5.9-6.6-15.5-6.7-25.9-0.1-10.9-0.2-21.3 5.8-27.9 9.3-10.3 26.4-3.1 55.7-1.9 38.5 1.6 68.3-8.3 68.1-10.5-0.2-2.3-32.9-0.2-80.6-8.7-25.4-4.5-37.5-8.9-41.1-18.4-2.9-7.8-0.3-19.3 6.9-25.3 7.3-6.1 20.1-7.4 92.7 19.7 37.2 13.9 46.1 18.8 64.4 18.3 12.8-0.4 24.9-4.4 48.7-12.5 39.8-13.6 65.6-22.3 64.8-28.1-1.5-10-80.7 8.6-177.3-9.4-109.4-20.3-187.9-77.6-184.9-85.4 2.4-6.3 64.3 0.6 67.2 1 0.6 0 7.5 0.8 16.3-1 3.6-0.7 15.9-3.2 16.5-8.2 0.6-5.1-11.8-10.3-13.6-11-13.4-5.6-24.5-3.8-42.2-2.9 0 0-17.5 0.9-33.7 0.2-40.2-1.7-76.3-33.8-73.2-41 2.6-6.1 36.2-0.5 82 7.2 20.4 3.4 37.2 7.1 45.1-2.1 4.3-5.1 5.5-13.5 2.5-19.5-5.7-11.2-24-10.3-44.5-12.5 0 0-55.6-5.9-103.9-39.3-21-14.6-38.5-33.5-35.6-37.9 2.9-4.5 24.4 9.1 68.8 17.7 21.7 4.2 19.2 1.5 36.7 5.5 25.3 6 40.3 14 51.9 6.5 4.2-2.7 6.6-6.5 7.8-9.1-2-0.7-5-1.7-8.6-2.9 0 0-31.4-10.6-59-21.6-45.5-18.1-68.2-27.2-85-43.2-27.5-26.2-43.9-66.5-34.4-75.6 11.8-11.3 67.4 23.1 84.8 33.9 15.4 9.5 33.8 22.6 63.4 30.2 8.2 2.1 26 6.7 27.9 2.7 4.8-10.1-108.6-44.4-150.3-136.6z"/>
			</g>
			<path id="&lt;Path&gt;" class="s0" d=""/>
			<g id="&lt;Group&gt;">
				<path id="&lt;Path&gt;" class="s2" d="m551.4 530.4c-4.4 4.5-26.9-11.7-72-44-20-14.4-26.6-20.2-32-30-13.4-24.4-10.7-58.2 0-62 3.3-1.2 10.2-0.4 54 58 36.1 48.1 54.8 73.1 50 78z"/>
			</g>
			<g id="&lt;Group&gt;">
				<path id="&lt;Path&gt;" class="s3" d="m557.4 580.4c-3.6 6.2-38.2-8.8-64-20-30.7-13.3-38.9-20.7-44-30-7.6-13.8-9.3-33.6-2-38 5.3-3.2 14.4 2.5 50 32 41.6 34.5 62.4 51.9 60 56z"/>
			</g>
			<path id="&lt;Path&gt;" class="s2" d="m563.3 616.4c-1.5 7.8-33.9 10-62 4-5.1-1.1-11.7-2.5-20-6-26.4-11-47.1-32.7-44-38 1.9-3.2 10.8 1.8 43 7.6 18.2 3.3 21.3 2.8 37 6.4 11.5 2.6 24.4 6.5 37.2 16 5.6 4.2 9.4 7.1 8.8 10z"/>
			<path id="&lt;Path&gt;" class="s4" d="m1028.8 747.8c-7.2-0.9-17.9-4.5-18-9.4 0-4.6 9.8-8.2 15.2-9.3 4.1-0.9 11.3-2.4 16.5 2.1 3.4 2.9 6.1 8.4 4.3 12.3-2.8 6.1-15.2 4.6-18 4.3z"/>
			<path id="&lt;Path&gt;" class="s0" d=""/>
		</g>
	</g>
</svg>