<svg version="1.2" xmlns="http://www.w3.org/2000/svg" viewBox="0 0 1280 800" width="1280" height="800">
	<title>Golden ratio-ai</title>
	<style>
		.s0 { fill: #ffffff;stroke: #000000 } 
	</style>
	<g id="Layer 1">
		<path id="&lt;Path&gt;" class="s0" d="m709.1 410.8l0.1 27.4-27.4 0.1-0.1-27.4z"/>
		<path id="&lt;Path&gt;" class="s0" d="m736.5 410.7l0.1 27.4-27.4 0.1-0.1-27.4z"/>
		<path id="&lt;Path&gt;" class="s0" d="m682 493.2l-0.2-54.9 54.9-0.2 0.2 54.9z"/>
		<path id="&lt;Path&gt;" class="s0" d="m819.2 492.7l-82.3 0.3-0.3-82.3 82.3-0.3z"/>
		<path id="&lt;Path&gt;" class="s0" d="m818.7 273.3l0.2 137.1-137.1 0.2-0.2-137.1z"/>
		<path id="&lt;Path&gt;" class="s0" d="m461.9 273.5h219.7v219.6h-219.7z"/>
		<path id="&lt;Path&gt;" class="s0" d="m680.6 383.3c0 60.7-49.2 109.8-109.8 109.8-60.7 0-109.9-49.1-109.9-109.8 0-60.6 49.2-109.8 109.9-109.8 60.6 0 109.8 49.2 109.8 109.8z"/>
		<path id="&lt;Path&gt;" class="s0" d="m681.8 342c0-37.8 30.6-68.5 68.4-68.5 37.8 0 68.5 30.7 68.5 68.5 0 37.8-30.7 68.4-68.5 68.4-37.8 0-68.4-30.6-68.4-68.4z"/>
		<path id="&lt;Path&gt;" class="s0" d="m682.3 465.7c0-14.9 12.1-27 27.1-27 14.9 0 27 12.1 27 27 0 14.9-12.1 27-27 27-15 0-27.1-12.1-27.1-27z"/>
		<path id="&lt;Path&gt;" class="s0" d="m736.4 451.7c0-22.9 18.6-41.5 41.5-41.5 23 0 41.6 18.6 41.6 41.5 0 23-18.6 41.6-41.6 41.6-22.9 0-41.5-18.6-41.5-41.6z"/>
		<path id="&lt;Path&gt;" class="s0" d="m681.6 424.6c0-7.7 6.2-13.9 13.8-13.9 7.7 0 13.9 6.2 13.9 13.9 0 7.6-6.2 13.8-13.9 13.8-7.6 0-13.8-6.2-13.8-13.8z"/>
		<g id="&lt;Group&gt;">
			<g id="&lt;Group&gt;">
			</g>
			<g id="&lt;Group&gt;">
			</g>
			<g id="&lt;Group&gt;" style="opacity: .2">
			</g>
			<g id="&lt;Group&gt;" style="opacity: .3">
			</g>
			<g id="&lt;Group&gt;" style="opacity: .3">
			</g>
			<g id="&lt;Group&gt;">
			</g>
			<g id="&lt;Group&gt;">
			</g>
			<g id="&lt;Group&gt;">
			</g>
			<g id="&lt;Group&gt;">
			</g>
			<g id="&lt;Group&gt;">
			</g>
		</g>
		<g id="&lt;Group&gt;">
		</g>
		<g id="&lt;Group&gt;">
		</g>
		<g id="&lt;Group&gt;">
		</g>
		<g id="&lt;Group&gt;">
		</g>
	</g>
</svg>